HIERARCHY
ROOT Root
{
  OFFSET 6.77787 12.0689 36.7517
  CHANNELS 6 Xposition Yposition Zposition Zrotation Xrotation Yrotation
  JOINT Spine
  {
    OFFSET 5.3114 0 0
    CHANNELS 3 Zrotation Xrotation Yrotation
    JOINT Spine1
    {
      OFFSET 2.79004 0 0
      CHANNELS 3 Zrotation Xrotation Yrotation
      JOINT Neck
      {
        OFFSET 1.43377 0 0
        CHANNELS 3 Zrotation Xrotation Yrotation
        JOINT Head
        {
          OFFSET 1.86043 0 0
          CHANNELS 3 Zrotation Xrotation Yrotation
          End Site
          {
            OFFSET 0 0 0
          }
        }
      }
      JOINT LeftArm
      {
        OFFSET 0.0387506 0 2.55754
        CHANNELS 3 Zrotation Xrotation Yrotation
        JOINT LeftForeArm
        {
          OFFSET 4.24845 0 0
          CHANNELS 3 Zrotation Xrotation Yrotation
          JOINT LeftHand
          {
            OFFSET 4.01008 0 0
            CHANNELS 3 Zrotation Xrotation Yrotation
            End Site
            {
              OFFSET 0 0 0
            }
          }
        }
      }
      JOINT RightArm
      {
        OFFSET 0.0387506 0 -2.55754
        CHANNELS 3 Zrotation Xrotation Yrotation
        JOINT RightForeArm
        {
          OFFSET -4.24845 0 0
          CHANNELS 3 Zrotation Xrotation Yrotation
          JOINT RightHand
          {
            OFFSET -4.01009 0 0
            CHANNELS 3 Zrotation Xrotation Yrotation
            End Site
            {
              OFFSET 0 0 0
            }
          }
        }
      }
    }
  }
  JOINT LeftUpLeg
  {
    OFFSET -1.23318 0 2.05692
    CHANNELS 3 Zrotation Xrotation Yrotation
    JOINT LeftLeg
    {
      OFFSET 5.46397 0 0
      CHANNELS 3 Zrotation Xrotation Yrotation
      JOINT LeftFoot
      {
        OFFSET 4.68898 0 0
        CHANNELS 3 Zrotation Xrotation Yrotation
        End Site
        {
          OFFSET 0 0 0
        }
      }
    }
  }
  JOINT RightUpLeg
  {
    OFFSET -1.24454 0 -2.05007
    CHANNELS 3 Zrotation Xrotation Yrotation
    JOINT RightLeg
    {
      OFFSET -5.46397 0 0
      CHANNELS 3 Zrotation Xrotation Yrotation
      JOINT RightFoot
      {
        OFFSET -4.68901 0 0
        CHANNELS 3 Zrotation Xrotation Yrotation
        End Site
        {
          OFFSET 0 0 0
        }
      }
    }
  }
}
MOTION
Frames:	19
Frame Time:	0.0416667
6.77787 12.0689 36.7517 -0 90 90 9.69808e-018 1.34041e-020 0.158382 1.41245e-030 7.06225e-031 2.48481e-017 -7.30747e-017 7.61111e-019 -1.19349 3.40995e-017 1.65719e-019 0.556895 -2.12238e-008 -1.53545e-005 -90.1584 -2.50273e-005 -2.47192e-012 6.55612e-006 1.52588e-005 -6.98387e-015 174.455 180 -4.60993e-005 -89.8417 -5.49628e-005 -2.25992e-011 3.612e-005 1.52588e-005 6.98387e-015 174.455 -0.0689889 -0.00395905 -176.308 -0.150494 0.0029828 -0.879875 0.0814213 -0.00123447 177.188 173.117 -0.406499 -176.234 -14.9342 0.276884 -0.85018 8.04221 -0.106901 176.776 
6.97842 12.1093 35.4126 -67.897 -88.1524 -155.074 6.6748 -4.32673 -10.4478 -3.80274 -0.796105 -1.77259 -3.50995 5.76637 3.54936 22.1349 11.8477 -9.81091 13.3036 -5.59415 -172.354 33.698 2.45181 19.4398 2.1164 22.8805 174.023 -158.591 -48.5195 -170.096 40.7317 4.31767 23.289 1.3012 14.5492 174.288 -6.4008 -11.2269 169.788 -27.7416 -1.36288 -1.09459 32.3221 -17.7722 -171.733 160.94 -11.5625 178.427 -49.8578 -1.52924 -1.72297 32.529 -10.5579 -177.684 
6.93998 12.0914 35.4881 -88.2251 -75.7012 -175.298 6.20895 -4.67323 -9.74951 -3.62188 -0.905764 -1.94064 -2.72931 5.6116 3.96821 21.1938 11.2881 -11.1741 13.0012 -4.04584 -166.968 31.9436 2.40403 18.386 1.89793 20.7353 174.108 -155.82 -42.208 -163.531 37.4642 3.87003 21.38 1.66923 18.4168 174.184 -5.16852 -9.37701 170.44 -25.884 -1.28226 -1.07852 30.1643 -16.3419 -172.592 161.228 -10.6481 179.159 -49.0114 -1.40317 -1.70625 30.4992 -8.84697 -178.618 
6.92745 12.0826 35.4662 -85.9403 -74.3155 -172.535 6.30831 -5.44828 -10.1866 -3.58353 -1.12114 -1.67446 -2.38444 6.16902 4.3756 21.6341 12.1571 -12.9288 12.9314 -2.08697 -167.728 31.9066 2.39528 18.3655 1.88101 20.5449 174.114 -155.557 -42.6217 -162.707 37.5845 3.90555 21.4439 1.62249 17.9153 174.199 -3.71653 -8.64162 169.762 -24.9611 -1.27637 -1.05161 30.3654 -16.465 -172.352 161.003 -10.5091 179.764 -50.6779 -1.40231 -1.74937 30.1228 -7.94282 -179.114 
6.91295 12.0684 35.4536 -85.1849 -73.1324 -171.43 6.13646 -6.07345 -10.264 -3.27311 -1.29592 -1.84847 -1.82167 6.65518 4.51507 20.34 13.0129 -13.2013 12.7262 -0.890931 -168.037 31.708 2.34833 18.256 1.87796 20.4879 174.117 -156.028 -42.2643 -162.771 37.916 4.0038 21.6203 1.65815 18.248 174.187 -2.78426 -7.28821 169.378 -24.411 -1.27378 -1.03499 30.1949 -16.1347 -172.554 160.481 -9.82706 -179.729 -51.9781 -1.41265 -1.78384 30.1007 -7.3332 -179.396 
6.90612 12.0663 35.4478 -84.6896 -72.0704 -171.034 6.30191 -6.62677 -9.83454 -3.36935 -1.48139 -1.62729 -2.00874 6.96369 5.22137 20.6103 13.363 -14.8687 13.1817 -0.516435 -168.79 31.5634 2.31439 18.1762 1.91039 20.7716 174.106 -156.026 -42.0128 -162.372 38.4748 4.17166 21.9165 1.60429 17.755 174.203 -2.25474 -6.92419 169.301 -24.3442 -1.27996 -1.03278 30.7028 -16.5567 -172.095 160.326 -9.60924 -179.921 -52.2682 -1.40635 -1.79228 29.5195 -7.34408 -179.467 
6.90956 12.0606 35.445 -85.4229 -70.9869 -171.753 5.94111 -6.82787 -9.45338 -3.23055 -1.56529 -1.73403 -2.14662 7.34296 5.72854 20.467 14.0458 -15.1715 13.9534 -0.749045 -169.131 31.7316 2.35402 18.2691 1.86022 20.3322 174.123 -156.253 -41.979 -162.304 38.6525 4.22577 22.0105 1.61044 17.8275 174.2 -2.20924 -6.95205 169.145 -24.3396 -1.28899 -1.03225 31.408 -16.947 -171.563 160.523 -10.0672 179.888 -51.3094 -1.40731 -1.76452 30.2693 -7.30045 -179.365 
6.91851 12.0652 35.4332 -86.2683 -69.9301 -172.878 5.67538 -6.8475 -8.74231 -3.26593 -1.63398 -1.32307 -2.36187 7.75155 5.6117 20.1112 14.8412 -15.1168 14.3545 -0.960882 -170.068 31.4852 2.29638 18.133 1.9334 21.0875 174.094 -156.467 -40.877 -162.092 38.6155 4.21398 21.9911 1.6539 18.2468 174.186 -2.06127 -7.04529 169.377 -24.0652 -1.29107 -1.02444 32.1955 -17.1711 -171.094 161.368 -11.8126 179.039 -49.0751 -1.39946 -1.70025 30.6418 -8.33172 -178.813 
6.91631 12.1 35.4149 -87.4142 -69.2548 -174.28 5.21504 -6.72819 -7.84118 -3.12092 -1.6352 -1.63239 -2.72675 8.04205 5.91799 19.7666 15.476 -14.5765 14.3234 -0.724336 -170.381 31.057 2.19731 17.8963 2.00375 21.7738 174.067 -157.447 -40.0068 -162.886 37.5417 3.89293 21.4211 1.76781 19.4005 174.146 -1.98693 -7.56692 169.543 -23.4731 -1.27338 -1.00866 32.2253 -17.9334 -170.587 161.765 -12.9787 178.403 -47.3104 -1.35845 -1.65892 30.0148 -9.12664 -178.554 
6.90756 12.1326 35.408 -89.2673 -68.5927 -176.623 4.6821 -6.83545 -6.58651 -3.35078 -1.72532 -1.55271 -1.84321 8.55854 5.13248 17.2488 16.6367 -13.1254 14.9849 -1.29638 -171.157 31.1127 2.21025 17.927 2.00005 21.7383 174.068 -156.707 -40.2564 -162.273 36.6858 3.64468 20.9642 1.84151 20.1419 174.119 -2.49601 -8.54852 169.843 -23.3165 -1.2659 -1.00625 32.8284 -19.1634 -169.571 161.835 -14.54 177.435 -45.2472 -1.32623 -1.61005 29.7932 -9.96588 -178.204 
6.88884 12.1671 35.4095 -92.6327 -68.3934 179.623 3.92302 -7.12315 -5.49715 -3.42041 -1.86701 -1.277 -0.751073 8.73894 5.06117 13.4192 16.9125 -13.3117 15.5286 -2.60151 -171.656 31.6761 2.34072 18.2385 1.92724 21.0254 174.097 -157.382 -39.3664 -162.657 36.0514 3.46643 20.623 1.83671 20.1058 174.121 -3.69286 -10.0044 170.229 -22.8946 -1.25207 -0.999698 33.5006 -19.9554 -168.753 161.162 -16.1911 176.41 -43.395 -1.30019 -1.56968 29.4619 -11.4332 -177.614 
6.86338 12.1937 35.4151 -95.4962 -68.1252 176.442 3.65551 -7.31632 -4.61926 -3.62018 -1.96407 -0.897192 -1.10917 8.94169 5.63742 12.4626 17.2867 -13.8066 15.8878 -4.31216 -171.737 32.1041 2.44232 18.4744 1.85354 20.2926 174.124 -157.38 -38.453 -162.82 36.2843 3.53152 20.7482 1.76529 19.44 174.145 -4.71716 -12.0479 170.364 -22.2769 -1.24198 -0.990769 34.9538 -20.2945 -167.768 160.353 -17.6182 175.598 -41.974 -1.26543 -1.54053 28.9938 -12.1563 -177.404 
6.8272 12.2082 35.4265 -97.6525 -67.7621 174.065 3.83855 -7.39496 -3.85523 -3.57234 -2.00319 -0.862096 -1.53092 9.04617 6.48988 11.0234 17.5181 -14.186 15.8504 -5.75245 -171.235 32.7693 2.60387 18.8399 1.82381 19.9886 174.133 -158.246 -37.56 -163.509 36.1057 3.48104 20.6526 1.80126 19.7454 174.135 -5.78393 -14.2847 170.22 -22.0023 -1.24606 -0.985828 37.1522 -20.3128 -166.548 159.549 -18.5621 175.043 -40.8048 -1.2202 -1.51856 27.7112 -13.463 -177.19 
6.76828 12.209 35.4971 -100.968 -68.069 170.935 4.4388 -8.40923 -3.71379 -4.22644 -2.30301 -0.409288 -1.09733 9.19479 6.66169 8.98526 17.8629 -14.4815 15.4531 -6.87031 -170.615 32.9771 2.65536 18.9538 1.73023 19.0414 174.165 -157.797 -37.6154 -163.005 36.3025 3.5365 20.7582 1.74932 19.2378 174.154 -7.68849 -14.0503 170.33 -22.1017 -1.23568 -0.991047 35.7964 -20.5538 -167.155 157.86 -19.0932 174.856 -40.8716 -1.22853 -1.51899 27.3938 -14.4515 -176.873 
6.71689 12.2067 35.5427 -101.701 -67.5015 170.386 5.62657 -8.34239 -3.64569 -4.34457 -2.26997 -0.394755 -1.50296 9.15668 6.73862 7.97902 17.8912 -14.2076 14.586 -7.88032 -169.705 33.2056 2.71214 19.079 1.67712 18.4989 174.182 -158.731 -38.2259 -163.298 36.1434 3.49204 20.6726 1.76055 19.3143 174.151 -8.25177 -13.6374 170.184 -21.7875 -1.22348 -0.985444 35.1373 -20.4767 -167.53 156.812 -18.7981 175.2 -41.3137 -1.21499 -1.52724 26.7155 -13.7626 -177.333 
6.67013 12.1927 35.5857 -102.262 -66.9399 170.382 6.40046 -8.44321 -4.15769 -4.3752 -2.27224 -0.368685 -1.21017 9.20844 6.61192 7.54132 17.9935 -14.0676 13.878 -8.35784 -168.688 33.6022 2.81259 19.2956 1.5946 17.6562 174.21 -158.538 -39.4033 -162.947 36.43 3.57222 20.8268 1.7064 18.7921 174.17 -8.73517 -14.2832 169.451 -20.9472 -1.20134 -0.971142 35.249 -20.6488 -167.229 155.604 -18.042 176.063 -42.4179 -1.20539 -1.54907 26.0914 -12.3877 -178.038 
6.63007 12.1839 35.5988 -101.397 -66.216 171.565 7.2008 -8.1438 -4.41079 -3.9363 -2.14296 -0.792319 -0.870177 9.24713 6.04943 7.69984 18.039 -13.7694 13.099 -8.63405 -167.644 33.9199 2.89376 19.4691 1.59661 17.6391 174.21 -158.648 -40.3767 -162.85 36.6641 3.63883 20.9523 1.70401 18.7509 174.172 -8.50911 -14.2137 168.789 -20.5452 -1.19144 -0.962086 35.4553 -21.1574 -166.699 155.163 -17.5087 176.794 -43.315 -1.20509 -1.56762 25.9645 -11.0396 -178.583 
6.58554 12.1723 35.6427 -102.091 -66.6241 171.425 7.86171 -8.61326 -5.02263 -4.20037 -2.23189 -0.915611 -0.292669 9.34058 5.70573 8.6022 18.1411 -13.3297 13.1493 -9.80114 -166.638 34.8417 3.13546 19.9702 1.55009 17.1821 174.225 -158.538 -41.2333 -162.893 36.6872 3.64536 20.9647 1.60281 17.7838 174.205 -9.03254 -12.8876 168.409 -20.4185 -1.17621 -0.9611 33.5729 -21.3129 -167.586 154.436 -16.5418 177.773 -44.2581 -1.21671 -1.58716 26.0272 -10.1466 -178.912 
6.55105 12.1691 35.6627 -101.658 -66.959 171.89 8.66018 -8.7187 -4.98294 -4.38167 -2.23956 -0.96574 -0.245537 9.13629 6.10009 11.1351 17.5149 -15.0116 13.3144 -10.558 -166.271 35.6082 3.34349 20.3845 1.44509 16.1856 174.256 -157.832 -41.604 -162.475 37.2097 3.79629 21.2438 1.61863 17.9092 174.202 -9.04102 -11.8289 168.383 -20.7256 -1.17793 -0.960504 32.4046 -20.8329 -168.527 154.403 -16.1514 178.084 -44.7356 -1.23423 -1.59643 26.1193 -10.1508 -178.884 
